{"title":"Justice.League.The.Flashpoint.Paradox.2013.DVDRiP.XviD.AC3 - BiT","uid":8695468,"size":1358669558,"categoryP":"video","categoryS":"movies","magnet":"?xt=urn:btih:9bb38d4c8f33bd3ba679053f1bd7eaee8edca4dd&amp;dn=Justice.League.The.Flashpoint.Paradox.2013.DVDRiP.XviD.AC3+-+BiT&amp;tr=udp%3A%2F%2Ftracker.openbittorrent.com%3A80&amp;tr=udp%3A%2F%2Fopen.demonii.com%3A1337&amp;tr=udp%3A%2F%2Ftracker.coppersurfer.tk%3A6969&amp;tr=udp%3A%2F%2Fexodus.desync.com%3A6969","seeders":1,"leechers":1,"uploader":"R0thschild","files":4,"time":1373966505,"description":"              ***********************************************\n\n                PublicHash - Largest Bittorrent Community\n      \n                         &lt;a href=&quot; http://publichash.com/&quot; rel=&quot;nofollow&quot; target=&quot;_NEW&quot;&gt; http://publichash.com/&lt;/a&gt;\n\n          Crystal Clean files - Fast Speed! No Virus! No Fake! Enjoy!\n    \n              ***********************************************\nJustice.League.The.Flashpoint.Paradox.2013.DVDRiP.XviD.AC3 - BiTo [PublicHash]\n &lt;a href=&quot;\nhttp://www.imdb.com/title/tt2820466/&quot; rel=&quot;nofollow&quot; target=&quot;_NEW&quot;&gt;\nhttp://www.imdb.com/title/tt2820466/&lt;/a&gt;\n*********************************\nPlot\nAn alteration of the timeline for the superhero, The Flash, creates ripples that disastrously alters the Universe. The Flash must team with other heroes to restore the timeline while the Earth is ravaged by a war between Aquaman's Atlantis and Wonder Woman's Amazons\n*********************************\nDirector:\nJay Oliva\n\nWriters:\nGeoff Johns (original story)\nJames Krieg (screenplay)\n*********************************\nStars:\nMichael B. Jordan\nNathan Fillion\nRon Perlman\n*********************************\n\nSource: DVDRETAIL\nSample: Yes\nChapters: no\nCodec: XviD\nContainer: AVI\nAudio: AC3 6CH @ English\n*********************************\n\nID: 0\nFormat: MPEG-4 Visual\nFormat profile: Advanced Simple@L5\nFormat settings, BVOP: 1\nFormat settings, QPel: No\nFormat settings, GMC: No warppoints\nFormat settings, Matrix: Default (MPEG)\nCodec ID: XVID\nCodec ID/Hint: XviD\nDuration: 1h 29mn\nBit rate: 1 550 Kbps\nWidth: 720 pixels\nHeight: 400 pixels\nDisplay aspect ratio: 16:9\nFrame rate: 23.976 fps\nColor space: YUV\nChroma subsampling: 4:2:0\nBit depth: 8 bits\nScan type: Progressive\nCompression mode: Lossy\nBits/(Pixel*Frame): 0.224\nStream size: 991 MiB (79%)\nWriting library: XviD 1.2.1 (UTC 2008-12-04)\n*********************************\nID: 1\nFormat: AC-3\nFormat/Info: Audio Coding 3\nMode extension: CM (complete main)\nFormat settings, Endianness: Big\nCodec ID: 2000\nDuration: 1h 21mn\nBit rate mode: Constant\nBit rate: 448 Kbps\nChannel(s): 6 channels\nChannel positions: Front: L C R, Side: L R, LFE\nSampling rate: 48.0 KHz\nBit depth: 16 bits\nCompression mode: Lossy\nStream size: 260 MiB (21%)\nAlignment: Aligned on interleaves\nInterleave, duration: 70 ms (1.69 video frames)\nInterleave, preload duration: 192 ms\nTitle: VTS_01_1 T80 3_2ch 384Kbps DELAY 0ms_new ","torrent":{"xt":"urn:btih:9bb38d4c8f33bd3ba679053f1bd7eaee8edca4dd","amp;dn":"Justice.League.The.Flashpoint.Paradox.2013.DVDRiP.XviD.AC3+-+BiT","amp;tr":["udp%3A%2F%2Ftracker.openbittorrent.com%3A80","udp%3A%2F%2Fopen.demonii.com%3A1337","udp%3A%2F%2Ftracker.coppersurfer.tk%3A6969","udp%3A%2F%2Fexodus.desync.com%3A6969"],"infoHash":"9bb38d4c8f33bd3ba679053f1bd7eaee8edca4dd","infoHashBuffer":{"type":"Buffer","data":[155,179,141,76,143,51,189,59,166,121,5,63,27,215,234,238,142,220,164,221]},"announce":[],"urlList":[]}}